<?xml version="1.0" encoding="UTF-8" standalone="no"?>
<!-- Created with Inkscape (http://www.inkscape.org/) -->

<svg
   version="1.1"
   id="svg1"
   width="4154.6665"
   height="2186.6667"
   viewBox="0 0 4154.6665 2186.6667"
   sodipodi:docname="5234.eps"
   xmlns:inkscape="http://www.inkscape.org/namespaces/inkscape"
   xmlns:sodipodi="http://sodipodi.sourceforge.net/DTD/sodipodi-0.dtd"
   xmlns="http://www.w3.org/2000/svg"
   xmlns:svg="http://www.w3.org/2000/svg">
  <defs
     id="defs1" />
  <sodipodi:namedview
     id="namedview1"
     pagecolor="#ffffff"
     bordercolor="#000000"
     borderopacity="0.25"
     inkscape:showpageshadow="2"
     inkscape:pageopacity="0.0"
     inkscape:pagecheckerboard="0"
     inkscape:deskcolor="#d1d1d1">
    <inkscape:page
       x="0"
       y="0"
       inkscape:label="1"
       id="page1"
       width="4154.6665"
       height="2186.6667"
       margin="0"
       bleed="0" />
  </sodipodi:namedview>
  <g
     id="g1"
     inkscape:groupmode="layer"
     inkscape:label="1">
    <g
       id="group-R5">
      <path
         id="path2"
         d="M 0,16400 V 0 H 31160 V 16400 H 0"
         style="fill:#ffffff;fill-opacity:1;fill-rule:nonzero;stroke:none"
         transform="matrix(0.13333333,0,0,-0.13333333,0,2186.6667)" />
      <path
         id="path3"
         d="m 3176.71,2312.2 c 0,0 -1528.37,3779 707.54,6035.47 2883.93,2910.43 6610.75,477.66 8009.15,548.59 1398.4,70.93 1477.1,2863.54 5655.4,3197.04 3230.6,257.9 8536.2,278.2 7404.3,-4284.28 C 24092.6,4340.2 28880.6,6137 27948.3,2304.9 l -24771.59,7.3"
         style="fill:#fcecdb;fill-opacity:1;fill-rule:nonzero;stroke:none"
         transform="matrix(0.13333333,0,0,-0.13333333,0,2186.6667)" />
      <path
         id="path4"
         d="m 7862.43,4617.5 c 0,0 -363.64,424.3 -22.43,693.7 0,0 249.24,150.9 452.47,138.7 0,0 -287.97,-482.9 -194.81,-530.9 93.16,-48.1 282.09,561.2 282.09,561.2 0,0 567.18,55 749.63,-32.7 0,0 -484.86,-396.8 -382.74,-420.4 102.12,-23.7 625.84,365.8 625.84,365.8 0,0 527.89,-89.8 499.75,-411.9 -28.17,-322 -210.05,-421.4 -289.99,-412.9 -79.95,8.6 -547.6,187.1 -557.79,121.6 -10.18,-65.5 271.31,-279.6 468.44,-289.6 0,0 -372.17,-410.4 -619.51,-292 -247.35,118.5 -268.48,306.2 -422.66,376.7 -154.18,70.4 -285.8,70.2 -222.15,-1.6 63.67,-71.8 342.71,-141.6 430.88,-297.6 88.18,-156 167.29,-261.2 -88.62,-222.7 -255.9,38.5 -671.88,225.8 -690.15,440.2 -18.25,214.4 -18.25,214.4 -18.25,214.4"
         style="fill:#599dad;fill-opacity:1;fill-rule:nonzero;stroke:none"
         transform="matrix(0.13333333,0,0,-0.13333333,0,2186.6667)" />
      <path
         id="path5"
         d="m 9612.84,4972.3 c 0,0 -1433.78,55.3 -1750.41,-354.8 0,0 -70.03,-209.7 -285.51,-400.6 l -33.58,-91.6 c 0,0 248.45,262 337.34,277.8 0,0 -139.02,508 1732.16,569.2"
         style="fill:#599dad;fill-opacity:1;fill-rule:nonzero;stroke:none"
         transform="matrix(0.13333333,0,0,-0.13333333,0,2186.6667)" />
      <path
         id="path6"
         d="m 7576.92,4216.9 c 0,0 -307.75,-227.7 -329.13,-634.3 l 55.86,-5 c 0,0 98.29,420.5 275.94,584.9 177.66,164.5 -2.67,54.4 -2.67,54.4"
         style="fill:#599dad;fill-opacity:1;fill-rule:nonzero;stroke:none"
         transform="matrix(0.13333333,0,0,-0.13333333,0,2186.6667)" />
      <path
         id="path7"
         d="m 6591.03,5151.1 c 0,0 578.44,323.9 308.5,763.5 0,0 -215.97,270 -447.34,339.4 0,0 123.41,-655.6 0,-671 -123.41,-15.4 -84.85,740.4 -84.85,740.4 0,0 -609.3,293.09 -848.4,269.96 0,0 377.94,-640.16 254.53,-624.76 -123.41,15.4 -547.62,663.32 -547.62,663.32 0,0 -624.73,115.7 -724.99,-254.52 -100.27,-370.2 61.7,-555.3 154.25,-578.5 92.56,-23.1 686.43,-15.4 671.01,-92.5 -15.42,-77.1 -416.48,-200.5 -640.15,-131.1 0,0 246.8,-609.3 570.74,-578.5 323.93,30.9 424.2,231.4 624.74,246.8 200.52,15.5 347.07,-38.5 246.8,-92.5 -100.26,-54 -439.63,-17.7 -601.59,-155.4 -161.97,-137.7 -293.09,-222.6 7.71,-284.3 300.8,-61.7 840.69,-23.1 948.67,208.3 107.99,231.4 107.99,231.4 107.99,231.4"
         style="fill:#6bb7bf;fill-opacity:1;fill-rule:nonzero;stroke:none"
         transform="matrix(0.13333333,0,0,-0.13333333,0,2186.6667)" />
      <path
         id="path8"
         d="m 4786.23,6261.7 c 0,0 1619.69,-524.5 1804.8,-1110.6 0,0 -7.73,-262.3 154.24,-563.1 v -115.7 c 0,0 -169.67,393.4 -262.23,447.4 0,0 362.51,509 -1696.81,1342"
         style="fill:#6bb7bf;fill-opacity:1;fill-rule:nonzero;stroke:none"
         transform="matrix(0.13333333,0,0,-0.13333333,0,2186.6667)" />
      <path
         id="path9"
         d="m 6745.27,4588 c 0,0 249.78,-379.3 107.39,-841 l -64.26,17.3 c 0,0 62.37,508.5 -68.31,764.3 -130.69,255.8 25.18,59.4 25.18,59.4"
         style="fill:#6bb7bf;fill-opacity:1;fill-rule:nonzero;stroke:none"
         transform="matrix(0.13333333,0,0,-0.13333333,0,2186.6667)" />
      <path
         id="path10"
         d="m 7511.3,5597.8 c 0,0 -762.51,427 -406.67,1006.54 0,0 284.67,355.85 589.68,447.34 0,0 -162.67,-864.18 0,-884.48 162.66,-20.4 111.82,975.98 111.82,975.98 0,0 803.19,386.35 1118.36,355.84 0,0 -498.17,-843.84 -335.51,-823.51 162.68,20.33 721.86,874.35 721.86,874.35 0,0 823.56,152.5 955.66,-335.5 132.2,-488.01 -81.3,-732.02 -203.3,-762.52 -122.02,-30.5 -904.87,-20.34 -884.53,-122.04 20.33,-101.6 549.01,-264.3 843.83,-172.8 0,0 -325.33,-803.2 -752.33,-762.5 -427.02,40.6 -559.18,305 -823.52,325.3 -264.34,20.4 -457.51,-50.8 -325.33,-122 132.16,-71.1 579.5,-23.3 793.01,-204.8 213.5,-181.5 386.33,-293.4 -10.17,-374.7 -396.5,-81.3 -1108.18,-30.5 -1250.53,274.5 -142.33,305 -142.33,305 -142.33,305"
         style="fill:#86d1cd;fill-opacity:1;fill-rule:nonzero;stroke:none"
         transform="matrix(0.13333333,0,0,-0.13333333,0,2186.6667)" />
      <path
         id="path11"
         d="m 9890.34,7061.86 c 0,0 -2135.04,-691.36 -2379.04,-1464.06 0,0 10.16,-345.7 -203.34,-742.2 v -152.5 c 0,0 223.68,518.6 345.67,589.7 0,0 -477.84,671 2236.71,1769.06"
         style="fill:#6bb7bf;fill-opacity:1;fill-rule:nonzero;stroke:none"
         transform="matrix(0.13333333,0,0,-0.13333333,0,2186.6667)" />
      <path
         id="path12"
         d="m 7307.96,4855.6 c 0,0 -329.27,-500 -141.54,-1108.6 l 84.7,22.8 c 0,0 -82.22,670.3 90.04,1007.5 172.27,337.2 -33.2,78.3 -33.2,78.3"
         style="fill:#6bb7bf;fill-opacity:1;fill-rule:nonzero;stroke:none"
         transform="matrix(0.13333333,0,0,-0.13333333,0,2186.6667)" />
      <path
         id="path13"
         d="m 7485.61,2427.2 c 824.92,0 1493.65,668.7 1493.65,1493.6 H 5991.95 c 0,-824.9 668.74,-1493.6 1493.66,-1493.6"
         style="fill:#efcbab;fill-opacity:1;fill-rule:nonzero;stroke:none"
         transform="matrix(0.13333333,0,0,-0.13333333,0,2186.6667)" />
      <path
         id="path14"
         d="m 7853.14,2438.6 c -60.74,-7.6 -122.69,-11.5 -185.56,-11.5 -824.9,0 -1493.58,668.8 -1493.58,1493.7 h 371.07 c 0,-762.1 570.72,-1390.8 1308.07,-1482.2"
         style="fill:#ffebdc;fill-opacity:1;fill-rule:nonzero;stroke:none"
         transform="matrix(0.13333333,0,0,-0.13333333,0,2186.6667)" />
      <path
         id="path15"
         d="M 8999.88,2351.2 H 5971.33 v 0 c 0,101.7 82.51,184.2 184.28,184.2 h 2660 c 101.76,0 184.27,-82.5 184.27,-184.2 v 0"
         style="fill:#efcbab;fill-opacity:1;fill-rule:nonzero;stroke:none"
         transform="matrix(0.13333333,0,0,-0.13333333,0,2186.6667)" />
      <path
         id="path16"
         d="M 9013.22,3875 H 5942.84 v 45.8 H 9013.22 V 3875"
         style="fill:#efcdaf;fill-opacity:1;fill-rule:nonzero;stroke:none"
         transform="matrix(0.13333333,0,0,-0.13333333,0,2186.6667)" />
      <path
         id="path17"
         d="m 22261.1,2856.8 c 0,0 31,-499.3 127.6,-506.5 12.8,-0.9 489.9,-0.9 489.9,-0.9 l 609,3.5 c 0,0 -4,146.7 -182,177.8 -178,31 -476,156.1 -583.8,391.4 -113.5,247.5 -460.7,-65.3 -460.7,-65.3"
         style="fill:#163560;fill-opacity:1;fill-rule:nonzero;stroke:none"
         transform="matrix(0.13333333,0,0,-0.13333333,0,2186.6667)" />
      <path
         id="path18"
         d="m 21936.1,8761.3 c 0,0 287.5,-163.47 368,-163.46 80.5,0.03 396.4,61.08 484.5,16.08 88,-45 247.4,-226.05 277.4,-285.19 53.7,-106.35 -216.6,-59.38 -344.3,31.21 -18.6,13.15 -41.6,18.02 -63.8,13.18 -66.2,-14.44 -203.7,-39.42 -270,-14.86 -89.3,33.06 -559.5,69.73 -559.5,69.73 l 107.7,333.31"
         style="fill:#e49963;fill-opacity:1;fill-rule:nonzero;stroke:none"
         transform="matrix(0.13333333,0,0,-0.13333333,0,2186.6667)" />
      <path
         id="path19"
         d="m 19748.7,10987.9 c 0,0 298.1,-2118.29 791.6,-2308.01 243.5,-93.62 1319.7,-305.83 1638,-327.15 0,0 78,63.27 59,320.78 0,0 -1127.5,413.94 -1287.7,639.06 -238.4,335.04 148,1368.72 -151.1,1683.42 -299.2,314.6 -803,449.9 -1049.8,-8.1"
         style="fill:#ed7d2b;fill-opacity:1;fill-rule:nonzero;stroke:none"
         transform="matrix(0.13333333,0,0,-0.13333333,0,2186.6667)" />
      <path
         id="path20"
         d="m 19849.2,6525.12 c 86.9,-147.52 187.5,-285.72 291.1,-416.52 320.3,-404.4 669,-737.8 729.8,-1053 12,-62.8 31.2,-130.5 56.3,-201.7 25.4,-72.2 56.7,-148.1 92.9,-226.6 135.9,-295.3 339.2,-626.1 542.2,-926.9 350.8,-519.8 680.7,-953.7 680.7,-953.7 l 605.1,25.8 c -24.3,60.7 -288.1,778.5 -641.2,1655.7 -143.3,356.2 -295.7,735 -442.8,1100.2 -19.6,48.8 -39.2,97.4 -58.6,145.6 -44.9,111.8 -89.2,221.8 -132.4,329 -331.5,823.67 -595.5,1479.59 -595.5,1479.59 0,0 -1324.8,501.85 -1462.4,176.66 -113.4,-268.15 -21,-530.81 334.8,-1134.13"
         style="fill:#599dad;fill-opacity:1;fill-rule:nonzero;stroke:none"
         transform="matrix(0.13333333,0,0,-0.13333333,0,2186.6667)" />
      <path
         id="path21"
         d="m 20860.1,4283.1 c 0,0 -420.8,-270.4 -380,-358.3 5.5,-11.7 238,-428.2 238,-428.2 l 300,-530 c 0,0 126.2,75 66.5,245.6 -59.7,170.5 -95.7,491.7 57.1,700.5 160.8,219.7 -281.6,370.4 -281.6,370.4"
         style="fill:#163560;fill-opacity:1;fill-rule:nonzero;stroke:none"
         transform="matrix(0.13333333,0,0,-0.13333333,0,2186.6667)" />
      <path
         id="path22"
         d="m 21066,3807.8 c 0,0 -263,231.9 -309.3,402.1 0,0 1083.7,1298.5 1318.8,1589.5 10.8,13.4 8,28 -6.2,44.1 -177.5,200.1 -2149.4,606.94 -2407.1,1007.91 -88.8,138.12 -139.1,269.31 -166.5,383.89 -58.4,244.66 -12.2,413.65 -12.2,413.65 l 1969.3,56.96 c 0,0 1639.6,-1020.94 1825.3,-1717.01 C 23463.7,5292.7 21066,3807.8 21066,3807.8"
         style="fill:#6bb7bf;fill-opacity:1;fill-rule:nonzero;stroke:none"
         transform="matrix(0.13333333,0,0,-0.13333333,0,2186.6667)" />
      <path
         id="path23"
         d="m 22069.3,5843.5 c -177.5,200.1 -2149.4,606.94 -2407.1,1007.91 -88.8,138.12 -139.1,269.31 -166.5,383.89 v 249.23 l 837,131.64 c 0,0 237.3,-730.35 940.3,-1004.24 658.4,-256.53 783.1,-711.73 796.3,-768.43"
         style="fill:#5aa9ad;fill-opacity:1;fill-rule:nonzero;stroke:none"
         transform="matrix(0.13333333,0,0,-0.13333333,0,2186.6667)" />
      <path
         id="path24"
         d="m 20913.9,11121.4 c -398.4,-103 -1058.8,266.1 -1058.8,266.1 0,0 256.4,172.4 351.5,551 4.8,19 9.1,38.6 13,58.7 41.7,8.8 120.4,25.5 204.6,43.3 l 304.3,-272.6 c 0,0 -7,-113.2 -45,-307.7 -6.6,-34 -14.2,-70.4 -22.9,-109.2 163.3,-101.2 253.3,-229.6 253.3,-229.6"
         style="fill:#e49963;fill-opacity:1;fill-rule:nonzero;stroke:none"
         transform="matrix(0.13333333,0,0,-0.13333333,0,2186.6667)" />
      <path
         id="path25"
         d="m 19433.3,9470.04 c 57,-767.48 -18,-1934.75 46.7,-2136.91 55.9,-174.4 692.4,-70.72 946.5,-12.49 94,21.55 208,52.34 325.6,88.73 328.2,101.63 685.8,246.72 724.1,354.44 1.5,4.23 2.8,8.36 3.6,12.39 3.5,15.65 2.7,30.29 -0.7,45.15 -12.8,54.9 -62.1,114.3 -67.9,250.25 -6.5,151.79 -5.5,330.53 -11.2,522.75 -0.3,21.64 -0.6,45.25 -3,66.78 l -0.1,7.88 c -0.1,4.13 -0.2,8.16 -0.3,12.29 -5.5,214.35 -16.7,439.72 -29.7,663.21 -8.2,140.37 -17.8,279.38 -28.8,412.57 -28.6,343.82 -67.2,649.52 -118.2,842.82 -83.5,315.1 -267.4,520.6 -434.8,671.2 L 20664,11375 c -135.2,-29.5 -294.9,-10 -439.4,58.5 -156.5,74.3 -210.5,127.5 -237.7,107.4 -361.2,-278.6 -621,-1132.6 -553.6,-2070.86"
         style="fill:#f99746;fill-opacity:1;fill-rule:nonzero;stroke:none"
         transform="matrix(0.13333333,0,0,-0.13333333,0,2186.6667)" />
      <path
         id="path26"
         d="m 20752.1,7409.37 c 328.2,101.63 685.8,246.72 724.1,354.44 1.5,4.23 2.8,8.36 3.6,12.39 -0.2,15.05 -0.4,30.11 -0.7,45.15 -12.8,54.9 -62.1,114.3 -67.9,250.25 -6.5,151.79 -5.5,330.53 -11.2,522.75 -0.3,21.64 -0.6,45.25 -3,66.78 l -0.1,7.88 c -0.1,4.13 -0.2,8.16 -0.3,12.29 L 20070,10371.5 c 0,0 -891.8,-1857.02 682.1,-2962.13"
         style="fill:#ed7d2b;fill-opacity:1;fill-rule:nonzero;stroke:none"
         transform="matrix(0.13333333,0,0,-0.13333333,0,2186.6667)" />
      <path
         id="path27"
         d="m 20728.5,11767.9 c 0,0 -7,-113.2 -45,-307.7 -297.2,96 -431.9,364.4 -476.9,478.3 4.8,19 9.1,38.6 13,58.7 41.7,8.8 120.4,25.5 204.6,43.3 l 304.3,-272.6"
         style="fill:#d68d5d;fill-opacity:1;fill-rule:nonzero;stroke:none"
         transform="matrix(0.13333333,0,0,-0.13333333,0,2186.6667)" />
      <path
         id="path28"
         d="m 20768.5,11596.4 c 0,0 -648.1,108.1 -574.5,510.6 73.6,402.5 39.5,687.6 456.3,635.5 416.9,-52 469,-220.2 477.1,-360.6 8.1,-140.3 -188.5,-803.3 -358.9,-785.5"
         style="fill:#e49963;fill-opacity:1;fill-rule:nonzero;stroke:none"
         transform="matrix(0.13333333,0,0,-0.13333333,0,2186.6667)" />
      <path
         id="path29"
         d="m 23319.2,8152.38 57.1,-18.56 486.2,1496.34 -57.1,18.57 -486.2,-1496.35"
         style="fill:#4a75cb;fill-opacity:1;fill-rule:nonzero;stroke:none"
         transform="matrix(0.13333333,0,0,-0.13333333,0,2186.6667)" />
      <path
         id="path30"
         d="m 21727.8,8267.81 1650.6,-35.25 -2.1,-98.74 -1650.6,35.24 2.1,98.75"
         style="fill:#4a75cb;fill-opacity:1;fill-rule:nonzero;stroke:none"
         transform="matrix(0.13333333,0,0,-0.13333333,0,2186.6667)" />
      <path
         id="path31"
         d="m 21758.7,8090.24 c 0,0 530.4,-139.83 729.3,-125.16 198.9,14.68 364.3,109.27 389.3,158.65 25.1,49.39 77.6,136.97 -57.8,120.8 -135.4,-16.17 -320.2,-44.95 -326,-18.92 -5.7,26.01 110.4,23.53 110.4,23.53 0,0 35.1,51.05 -9.1,52.89 -44.2,1.84 -173.1,36.83 -221,12.89 -47.9,-23.94 -92.1,-112.34 -127,-108.66 -35,3.68 -443.9,184.17 -443.9,184.17 l -44.2,-300.19"
         style="fill:#e49963;fill-opacity:1;fill-rule:nonzero;stroke:none"
         transform="matrix(0.13333333,0,0,-0.13333333,0,2186.6667)" />
      <path
         id="path32"
         d="m 19880.3,10901 c 0,0 62.6,-2138.25 532.2,-2381.23 231.7,-119.9 1278,-449.46 1592,-505.75 0,0 84.5,54.29 94,312.33 0,0 -1075,535.72 -1209.4,777.13 -200,359.27 298,1344.02 35.4,1689.82 -262.6,345.7 -748.5,535.6 -1044.2,107.7"
         style="fill:#f99746;fill-opacity:1;fill-rule:nonzero;stroke:none"
         transform="matrix(0.13333333,0,0,-0.13333333,0,2186.6667)" />
      <path
         id="path33"
         d="m 20206.6,11938.5 c 0,0 -7.5,138.1 77.7,217.2 0,0 -29.6,138.4 25.1,161.3 54.8,22.8 66.2,-93.6 91.3,-75.4 25.1,18.3 137,105 184.9,232.8 47.9,127.9 486.6,-27 537.7,-50 51.2,-23 215.5,61.5 247.4,129.9 0,0 -91.3,73.1 -132.4,127.8 -41,54.8 -328.6,424.6 -730.3,319.6 -401.7,-105 -456.5,-296.7 -433.6,-461.1 22.8,-164.3 -32.4,-547 132.2,-602.1"
         style="fill:#2b478b;fill-opacity:1;fill-rule:nonzero;stroke:none"
         transform="matrix(0.13333333,0,0,-0.13333333,0,2186.6667)" />
      <path
         id="path34"
         d="m 8025.21,11117.6 345.73,33 c 27.72,2.7 53.94,-13.1 64.64,-38.8 l 261.02,-628.3 c 16.38,-39.4 -10.07,-83.5 -52.58,-87.5 l -359.74,-34.4 c -28.21,-2.7 -54.78,13.6 -65.12,40 l -247.01,629.7 c -15.39,39.2 11.07,82.3 53.06,86.3"
         style="fill:#233862;fill-opacity:1;fill-rule:nonzero;stroke:none"
         transform="matrix(0.13333333,0,0,-0.13333333,0,2186.6667)" />
      <path
         id="path35"
         d="m 12409.1,2815.9 -183.5,-97.4 c 0,0 -991.9,1051.8 -1230.4,2061.2 -42.6,180.2 -59.8,357.9 -41.6,526.6 0,0 -14.4,45.7 -39.6,126.5 -1.1,3.5 -2.3,7.2 -3.4,10.8 -11,35.5 -24.3,77.2 -39,124.4 -47.9,152.5 -113.7,361.3 -188.6,598.9 -172.7,546.81 -567.6,1780.07 -736.34,2293.06 l 1212.84,438.8 c 0,0 137.7,-314.14 335.7,-1167.96 30.5,-111.45 61,-234.68 89.5,-368.94 32.4,-152.09 62.6,-318.38 87.7,-498.03 42.5,-304.35 70.9,-646.73 72.7,-1022.33 0.7,-152.8 -3.1,-311.2 -12.1,-474.7 -6.7,-119.8 11.2,-279.5 44.6,-461.2 152.8,-830.7 631.5,-2089.7 631.5,-2089.7"
         style="fill:#2b478b;fill-opacity:1;fill-rule:nonzero;stroke:none"
         transform="matrix(0.13333333,0,0,-0.13333333,0,2186.6667)" />
      <path
         id="path36"
         d="m 13073.1,2351.2 h -980.5 c 0,0 -36.7,156.3 27.7,262.8 57,94.1 35.1,147.8 -7.1,225.7 44.5,-18.2 101.9,-34.8 165.2,-31.1 48.8,2.8 100.5,24.9 145.8,51.3 42.2,-48.2 222.9,-253 279.4,-293.5 64.1,-46.1 349.8,-29.7 369.5,-215.2"
         style="fill:#233862;fill-opacity:1;fill-rule:nonzero;stroke:none"
         transform="matrix(0.13333333,0,0,-0.13333333,0,2186.6667)" />
      <path
         id="path37"
         d="M 11672.4,6863.83 10910.6,5443.6 c -11,35.5 -24.3,77.2 -39,124.4 -47.9,152.5 -113.7,361.3 -188.6,598.9 -172.7,546.81 -567.6,1780.07 -736.34,2293.06 l 1212.84,438.8 c 0,0 137.7,-314.14 335.7,-1167.96 30.5,-111.45 61,-234.68 89.5,-368.94 32.4,-152.09 62.6,-318.38 87.7,-498.03"
         style="fill:#233862;fill-opacity:1;fill-rule:nonzero;stroke:none"
         transform="matrix(0.13333333,0,0,-0.13333333,0,2186.6667)" />
      <path
         id="path38"
         d="m 8370.36,9995.82 c -6.08,-5.24 -296.71,291.88 -451.9,456.48 l 155.45,94.6 848.78,-532.8 -552.33,-18.28"
         style="fill:#ffb27d;fill-opacity:1;fill-rule:nonzero;stroke:none"
         transform="matrix(0.13333333,0,0,-0.13333333,0,2186.6667)" />
      <path
         id="path39"
         d="m 9926.91,2658.1 c 0,0 -22.82,-166.5 41.09,-306.9 h 406.3 c 0,0 3,121.2 -100.5,273.4 -103.4,152.2 -346.89,33.5 -346.89,33.5"
         style="fill:#233862;fill-opacity:1;fill-rule:nonzero;stroke:none"
         transform="matrix(0.13333333,0,0,-0.13333333,0,2186.6667)" />
      <path
         id="path40"
         d="m 10727.5,13496.3 c 5.5,25.9 74.7,304 506.3,244.1 0,0 -215.3,11.6 -267.9,-74.8 0,0 163.6,89.6 274.1,32.3 110.6,-57.2 143.6,-274.1 132.6,-341.6 -11.1,-67.5 -113.9,-273.5 -191.3,-279.1 -29.4,-2.1 -61.4,5.4 -90,15.6 14.4,-34.3 27.9,-71.7 39.8,-112.9 110,-381.2 -126.3,-693.9 -264.6,-630.7 -88.7,40.5 -142.6,-113.5 -142.6,-113.5 l -775.77,888.1 c 0,0 451.07,628.6 779.37,372.5"
         style="fill:#2c3a64;fill-opacity:1;fill-rule:nonzero;stroke:none"
         transform="matrix(0.13333333,0,0,-0.13333333,0,2186.6667)" />
      <path
         id="path41"
         d="m 9933.58,11114.5 c 101.22,-70.2 228.12,-128.1 387.42,-164.9 597.1,-137.9 825.9,366.8 911.9,713.2 -81.5,46.6 -158.1,56.8 -202.3,62.1 -43.2,5.1 -88.6,8.5 -126.2,10.4 -67,51.3 -166.9,261.5 -189,587.8 l -28.1,-7.5 -470.6,-128.8 c 0,0 21.5,-149.6 32.1,-291 8.2,-110.6 9.5,-216.4 -11.5,-242.2 -36.7,-8 -58.8,-13.2 -58.8,-13.2 0,0 0,-0.2 -0.2,-0.4 -6.3,-10.4 -142.9,-234.9 -244.72,-525.5"
         style="fill:#ffb27d;fill-opacity:1;fill-rule:nonzero;stroke:none"
         transform="matrix(0.13333333,0,0,-0.13333333,0,2186.6667)" />
      <path
         id="path42"
         d="m 10216.7,12186.7 c 0,0 21.6,-149.4 32.1,-291 266.6,26.7 390.3,280.6 438.5,419.8 l -470.6,-128.8"
         style="fill:#ed985f;fill-opacity:1;fill-rule:nonzero;stroke:none"
         transform="matrix(0.13333333,0,0,-0.13333333,0,2186.6667)" />
      <path
         id="path43"
         d="m 10137.1,12046.3 c 0,0 632.8,34.9 605,428.7 -27.8,393.7 35.1,663.4 -370.1,657.8 -405.24,-5.7 -473.04,-161.5 -495.73,-295.1 -22.68,-133.7 95.45,-790.3 260.83,-791.4"
         style="fill:#ffb27d;fill-opacity:1;fill-rule:nonzero;stroke:none"
         transform="matrix(0.13333333,0,0,-0.13333333,0,2186.6667)" />
      <path
         id="path44"
         d="m 9879.37,13057.9 c 89.2,125.5 164.93,104.8 208.83,72.1 331.9,214.7 574.6,-50.1 574.6,-50.1 62.6,-279.5 277.9,-426.7 277.9,-426.7 0,0 -110.1,-79.4 -380.6,-30.2 -82.6,15.1 -159.2,67.5 -225.8,133 120.4,-172.4 276,-291.7 276,-291.7 -327.7,123.9 -486.8,556 -502.8,601.7 -36.1,-37.4 -106.8,-118.1 -124.67,-193.6 -24.31,-102.5 -23.69,-309.9 -84.34,-307.2 0,0 -152.91,304.6 -19.12,492.7"
         style="fill:#2c3a64;fill-opacity:1;fill-rule:nonzero;stroke:none"
         transform="matrix(0.13333333,0,0,-0.13333333,0,2186.6667)" />
      <path
         id="path45"
         d="m 10034.6,11672.1 c 0,0 1031,250.3 1479.2,-119.4 l -224,-3124.35 -2016.21,487.08 c 0,0 56.73,197.7 443.35,723.41 386.66,525.66 218.45,1296.86 317.66,2033.26"
         style="fill:#ffb27d;fill-opacity:1;fill-rule:nonzero;stroke:none"
         transform="matrix(0.13333333,0,0,-0.13333333,0,2186.6667)" />
      <path
         id="path46"
         d="m 10635.6,8776.13 c 0,0 -1.2,-10.58 -3.3,-30.77 -0.9,-8.67 -2.1,-19.17 -3.3,-31.4 -8.7,-80.98 -25.1,-236.36 -46.3,-438.39 -55.3,-529.87 -142.2,-1380.91 -201.3,-2052.67 -46.3,-525.2 -75.7,-940.9 -59.8,-1007.6 47.7,-200.8 0,-2601.9 0,-2601.9 -171.4,-82.1 -431.2,0 -431.2,0 0,0 -456.46,2163.7 -392.56,2464.4 63.91,300.7 -42.72,557.5 -42.72,557.5 -354.41,1650.46 -315.61,2565.23 -245.22,3003.16 20.45,127.36 43.64,214.35 60.62,267.4 14.33,45.1 24.27,65.72 24.27,65.72 781.81,210.35 1340.81,-195.45 1340.81,-195.45"
         style="fill:#2b478b;fill-opacity:1;fill-rule:nonzero;stroke:none"
         transform="matrix(0.13333333,0,0,-0.13333333,0,2186.6667)" />
      <path
         id="path47"
         d="m 11289.8,8428.39 c -240.4,-100.97 -480.1,-145.16 -707.1,-152.82 -207.5,-6.95 -404.4,16.62 -581.9,55.23 -386.65,84.08 -681.07,239.74 -790.9,307.66 20.45,127.36 43.64,214.35 60.62,267.4 238.01,169.44 826.48,7.3 1307.28,-172.46 17.1,-6.48 34.2,-12.96 51.2,-19.44 368.2,-140.78 660.8,-285.57 660.8,-285.57"
         style="fill:#233862;fill-opacity:1;fill-rule:nonzero;stroke:none"
         transform="matrix(0.13333333,0,0,-0.13333333,0,2186.6667)" />
      <path
         id="path48"
         d="m 11652.8,10661.5 c -49.7,-375.8 -248.8,-835.77 -319.9,-1083.36 0,0 118.8,-859.53 5.3,-1095.52 -12.8,-26.93 -28.8,-45.75 -48.4,-54.23 -420.4,-183.13 -2057.62,-5.29 -2126.73,522.84 -25.12,191.89 623.62,866.92 661.42,948.81 15.71,33.88 32.4,143.66 -43.64,371.26 -107.82,-332.35 -306.93,-716.16 -507.23,-781.62 -220.1,-72.02 -1090.42,576.52 -1090.42,576.52 0,0 -5.02,78.8 105,153.3 70.75,47.9 233.25,64.1 233.25,64.1 l 556.53,-249.1 c 69.84,119.5 243.85,946.3 438.12,1319.5 146.07,280.5 536.1,321.2 536.1,321.2 0,0 162.3,-257.5 554.9,-221 392.5,36.5 464.3,276.8 464.3,276.8 0,0 348.2,-46.2 455.4,-132.8 18.6,-15 191.3,-444.2 126,-936.7"
         style="fill:#f99746;fill-opacity:1;fill-rule:nonzero;stroke:none"
         transform="matrix(0.13333333,0,0,-0.13333333,0,2186.6667)" />
      <path
         id="path49"
         d="m 11332.9,9578.14 c 0,0 118.8,-859.53 5.3,-1095.52 -306.3,153.74 -705.5,485.59 -584,1004.14 176.5,753.34 898.6,1174.74 898.6,1174.74 -49.7,-375.8 -248.8,-835.77 -319.9,-1083.36"
         style="fill:#ed7d2b;fill-opacity:1;fill-rule:nonzero;stroke:none"
         transform="matrix(0.13333333,0,0,-0.13333333,0,2186.6667)" />
      <path
         id="path50"
         d="m 11071.4,10155.9 c 0,0 -436,-63.2 -470.8,-95.7 -34.8,-32.5 -155.1,-221.68 -140.3,-287.47 14.9,-65.77 13.3,-133.58 40,-128.91 26.7,4.68 113.8,171.85 146.7,179.52 32.9,7.68 60,30.2 64,15.52 4,-14.68 -66.9,-85 -63.4,-105 3.5,-20 59.3,3.42 84.4,42.22 25.1,38.81 87.7,58.02 97.1,82.19 9.4,24.17 52.6,104.22 111.3,100.55 58.7,-3.66 131,197.08 131,197.08"
         style="fill:#ffb27d;fill-opacity:1;fill-rule:nonzero;stroke:none"
         transform="matrix(0.13333333,0,0,-0.13333333,0,2186.6667)" />
      <path
         id="path51"
         d="m 11495.6,10173.1 -424.2,-17.2 -145.1,-197.85 577,-19.3 -7.7,234.35"
         style="fill:#ffb27d;fill-opacity:1;fill-rule:nonzero;stroke:none"
         transform="matrix(0.13333333,0,0,-0.13333333,0,2186.6667)" />
      <path
         id="path52"
         d="m 11071.4,11731 c 0,0 505.7,-59.9 644.9,-276.8 176,-274.1 797.9,-1183.3 784.5,-1458.46 0,0 -387.4,-154.34 -1429,-71.61 0,0 -18.9,157.57 200.2,283.97 0,0 559.2,76.6 620.8,130.8 l -415.2,441.2 -406.2,950.9"
         style="fill:#f99746;fill-opacity:1;fill-rule:nonzero;stroke:none"
         transform="matrix(0.13333333,0,0,-0.13333333,0,2186.6667)" />
      <path
         id="path53"
         d="m 7949.88,11110.8 345.74,33 c 27.72,2.6 53.95,-13.1 64.63,-38.9 l 261.03,-628.3 c 16.38,-39.4 -10.06,-83.4 -52.57,-87.5 l -359.75,-34.3 c -28.21,-2.7 -54.78,13.6 -65.13,40 l -246.99,629.6 c -15.4,39.3 11.07,82.4 53.04,86.4"
         style="fill:#2b478b;fill-opacity:1;fill-rule:nonzero;stroke:none"
         transform="matrix(0.13333333,0,0,-0.13333333,0,2186.6667)" />
      <path
         id="path54"
         d="m 7918.46,10452.3 c 0,0 -91.3,157.5 -84.45,196.3 6.85,38.8 101.33,218.7 149.88,236.6 86.72,31.9 208.44,51.7 174.98,-39.6 -22.11,-60.3 -109.56,-147.6 -94.35,-175 15.22,-27.4 9.39,-123.7 9.39,-123.7 l -155.45,-94.6"
         style="fill:#ffb27d;fill-opacity:1;fill-rule:nonzero;stroke:none"
         transform="matrix(0.13333333,0,0,-0.13333333,0,2186.6667)" />
      <path
         id="path55"
         d="M 21697.8,3661.2 C 21574,2867.3 20763.8,2361.7 19932.9,2361.7 H 18287 l 128.7,4627.35 c 0,0 1570.4,504.04 1964.8,24.56 345.5,-420.04 1282.6,-2082.81 1331.9,-3066.91 4.9,-98.8 -0.2,-194.1 -14.6,-285.5"
         style="fill:#f9ddbf;fill-opacity:1;fill-rule:nonzero;stroke:none"
         transform="matrix(0.13333333,0,0,-0.13333333,0,2186.6667)" />
      <path
         id="path56"
         d="m 17328.8,6499.05 c 0,0 2220.3,1133.25 2640.8,392.98 223.3,-393.06 837.8,-1961.23 883.1,-2945.33 44.1,-956.2 -784.3,-1584.9 -1636.5,-1584.9 h -1513.5 l -373.9,4137.25"
         style="fill:#c6916d;fill-opacity:1;fill-rule:nonzero;stroke:none"
         transform="matrix(0.13333333,0,0,-0.13333333,0,2186.6667)" />
      <path
         id="path57"
         d="m 17746.3,5870.5 c -18.7,-96.3 -198.5,-185.7 -465.3,-264.7 -47,-14 -96.6,-27.6 -148.7,-40.9 -907.9,-231.9 -2516,-361.4 -2669.3,-293 -211.8,94.5 -1511.8,4713.42 -1511.8,4713.42 0,0 1240.9,46.68 2226.4,69.38 337.2,7.7 644.4,12.6 861.9,12 26.4,-0.1 51.3,-1.9 74.7,-5.2 94.1,-13.5 164,-52.7 219.3,-112.24 158.7,-170.54 198,-507.33 344.9,-879.62 145.3,-368.1 323.6,-827.49 492.6,-1283.41 43.6,-117.49 86.6,-234.72 128.2,-350.2 11.8,-32.59 23.4,-65 35,-97.23 249.9,-699.22 442.3,-1312.3 412.1,-1468.3"
         style="fill:#efcbab;fill-opacity:1;fill-rule:nonzero;stroke:none"
         transform="matrix(0.13333333,0,0,-0.13333333,0,2186.6667)" />
      <path
         id="path58"
         d="m 21697.8,3661.2 c -123.8,-793.9 -934,-1299.5 -1764.9,-1299.5 h -807.4 c 538.4,364.9 1025.2,1489.5 2572.3,1299.5"
         style="fill:#eac3a0;fill-opacity:1;fill-rule:nonzero;stroke:none"
         transform="matrix(0.13333333,0,0,-0.13333333,0,2186.6667)" />
      <path
         id="path59"
         d="m 17334.2,7338.8 c -41.3,6.76 -94.5,15.52 -154.9,25.75 -12.6,12.86 -22.5,25.83 -28.4,38.79 -24.3,53.41 -7.7,206.87 20.1,382.89 -169,455.92 -347.3,915.31 -492.6,1283.41 -146.9,372.29 -186.2,709.08 -344.9,879.62 -55.3,59.54 -125.2,98.74 -219.3,112.24 -131,-1.9 -269.3,-4.2 -412,-6.8 -50.7,-100.52 -138,-195.36 -288.9,-274.79 -673.3,-354.41 -173.9,-1084.75 -173.9,-1084.75 4.9,-3.29 267.3,-524.77 267.3,-524.77 -0.9,36.44 34.4,101.61 94.9,184.6 44.7,-311.77 117.3,-630.11 204.1,-857.98 -47.5,-240.74 -169.6,-599.33 -235,-873.59 -52.3,-218.74 -68.4,-383.62 17.9,-391.72 9.7,-0.9 20.5,-0.8 32.1,0 -5.4,-76.3 9.5,-156.6 52.6,-239.8 168.7,-326.2 980.4,-384.9 1607.7,-386.1 266.8,79 446.6,168.4 465.3,264.7 30.2,156 -162.2,769.08 -412.1,1468.3"
         style="fill:#e0b594;fill-opacity:1;fill-rule:nonzero;stroke:none"
         transform="matrix(0.13333333,0,0,-0.13333333,0,2186.6667)" />
      <path
         id="path60"
         d="m 20401.8,3072.7 c -317.7,-441.4 -805,-724.3 -1347.8,-715.5 l -2333.7,-1.2 -1118.1,-0.6 1258,4143.05 c 0,0 3183.9,316.77 3576.5,-105.65 182.3,-196.1 284.7,-1084.2 342,-1979.4 32.3,-504.8 -114.6,-976.7 -376.9,-1340.7"
         style="fill:#d39e7a;fill-opacity:1;fill-rule:nonzero;stroke:none"
         transform="matrix(0.13333333,0,0,-0.13333333,0,2186.6667)" />
      <path
         id="path61"
         d="m 20401.8,3072.7 c -317.7,-441.4 -805,-724.3 -1347.8,-715.5 l -2333.7,-1.2 c 274.6,230.5 1138.3,884.6 2063,853.7 700.9,-23.5 1257.6,-13.5 1618.5,-137"
         style="fill:#c6916d;fill-opacity:1;fill-rule:nonzero;stroke:none"
         transform="matrix(0.13333333,0,0,-0.13333333,0,2186.6667)" />
      <path
         id="path62"
         d="m 17532.9,9398.19 c 0,0 193.9,-286.92 304.5,-890.09 96.8,-528.27 181.8,-723.3 321.6,-831.63 139.9,-108.34 919.2,-428.18 919.2,-428.18 l -58.3,-136.51 c 0,0 -1142.2,155.56 -1270.5,346.46 -128.3,190.9 -617.4,1318.8 -579.5,1578.57 38,259.76 363,361.38 363,361.38"
         style="fill:#f4a269;fill-opacity:1;fill-rule:nonzero;stroke:none"
         transform="matrix(0.13333333,0,0,-0.13333333,0,2186.6667)" />
      <path
         id="path63"
         d="m 20329.9,3097.1 c -10.2,-111.4 144.8,-138.5 324.5,-147.4 179.6,-9 125.3,-45.8 371.5,-90.3 246.1,-44.6 344.8,22.7 362.6,56 15.9,29.5 -98.6,75.7 -220.6,127.8 -15.3,6.5 -30.7,13.2 -46,20 -137.3,60.3 -214.3,183.4 -321.4,297.6 -101.3,108.1 -197.6,454.2 -197.6,454.2 l -334.5,71.5 c 0,0 93.9,-311.6 126.5,-444.6 19.2,-78.2 -9.1,-165.7 -34.2,-232.3 -13.5,-36.2 -27.2,-73.2 -30.8,-112.5"
         style="fill:#ffb27d;fill-opacity:1;fill-rule:nonzero;stroke:none"
         transform="matrix(0.13333333,0,0,-0.13333333,0,2186.6667)" />
      <path
         id="path64"
         d="m 20654.4,2949.7 c 179.6,-9 125.3,-45.8 371.5,-90.3 246.1,-44.6 344.8,22.7 362.6,56 15.9,29.5 -98.6,75.7 -220.6,127.8 l -1.9,-2.1 c 0,0 -173.1,-58.7 -372.8,-4.4 -162.9,44.2 -320.3,141.5 -432.5,172.9 -13.5,-36.2 -27.2,-73.2 -30.8,-112.5 -10.2,-111.4 144.8,-138.5 324.5,-147.4"
         style="fill:#c65447;fill-opacity:1;fill-rule:nonzero;stroke:none"
         transform="matrix(0.13333333,0,0,-0.13333333,0,2186.6667)" />
      <path
         id="path65"
         d="m 16998.9,7063.83 c 0,0 2222.8,167.29 2641.3,-96.81 418.4,-264.11 1089.6,-3340.42 1089.6,-3340.42 0,0 -41.4,-33.2 -134,-43.2 -86,-9.3 -275.5,41.3 -275.5,41.3 0,0 -964.5,1376.4 -1032.5,1723.2 -67.9,346.7 -51.3,656.2 -206,664.4 -154.7,8.3 -2083.2,-234.4 -2375,279.5 -291.7,513.9 -50.5,1022.62 -50.5,1022.62 l 342.6,-250.59"
         style="fill:#163560;fill-opacity:1;fill-rule:nonzero;stroke:none"
         transform="matrix(0.13333333,0,0,-0.13333333,0,2186.6667)" />
      <path
         id="path66"
         d="m 19479.4,2740.1 c -10.3,-111.4 144.8,-138.5 324.4,-147.5 179.6,-8.9 125.3,-45.7 371.5,-90.3 246.2,-44.5 344.8,22.8 362.6,56.1 15.9,29.5 -98.6,75.6 -220.5,127.8 -15.4,6.5 -30.7,13.2 -46.1,19.9 -137.3,60.4 -214.3,183.5 -321.3,297.6 -101.4,108.1 -197.6,454.3 -197.6,454.3 l -334.5,71.4 c 0,0 93.9,-311.5 126.5,-444.5 19.2,-78.2 -9.1,-165.7 -34.3,-232.3 -13.5,-36.2 -27.2,-73.3 -30.7,-112.5"
         style="fill:#ffb27d;fill-opacity:1;fill-rule:nonzero;stroke:none"
         transform="matrix(0.13333333,0,0,-0.13333333,0,2186.6667)" />
      <path
         id="path67"
         d="m 19803.8,2592.6 c 179.6,-8.9 125.3,-45.7 371.5,-90.3 246.2,-44.5 344.8,22.8 362.6,56.1 15.9,29.5 -98.6,75.6 -220.5,127.8 l -1.9,-2.1 c 0,0 -173.1,-58.8 -372.9,-4.4 -162.8,44.2 -320.3,141.5 -432.5,172.9 -13.5,-36.2 -27.2,-73.3 -30.7,-112.5 -10.3,-111.4 144.8,-138.5 324.4,-147.5"
         style="fill:#c65447;fill-opacity:1;fill-rule:nonzero;stroke:none"
         transform="matrix(0.13333333,0,0,-0.13333333,0,2186.6667)" />
      <path
         id="path68"
         d="m 16563.5,6926.08 c 0,0 1974.6,-93.46 2382.5,-373.66 407.9,-280.22 958.8,-3380.32 958.8,-3380.32 0,0 -42.7,-31.5 -135.5,-37.9 -86.4,-6 -273.8,52 -273.8,52 0,0 -910.2,1412.9 -964.6,1762 -54.4,349.2 -25.8,657.7 -180,672 -154.3,14.3 -2090.8,-153.2 -2362.3,371.7 -271.5,524.86 574.9,934.18 574.9,934.18"
         style="fill:#1c468a;fill-opacity:1;fill-rule:nonzero;stroke:none"
         transform="matrix(0.13333333,0,0,-0.13333333,0,2186.6667)" />
      <path
         id="path69"
         d="m 17267.1,11271.4 c -87.6,57.8 -196.4,70.7 -273,71.3 21,19 60.2,23.8 60.2,23.8 -46.9,10.2 -155.7,-29.7 -155.7,-29.7 -641.6,297.6 -809.7,-665.1 -810.9,-891.2 -1.3,-226.2 -16.9,-485.6 -359.1,-665.71 -673.3,-354.37 -173.8,-1084.7 -173.8,-1084.7 4.9,-3.34 267.3,-524.84 267.3,-524.84 -4.5,183.15 899.4,1087.76 1356.8,1346.23 117.1,149.93 173.5,424.83 177.8,446.47 -33,-218.73 -78.9,-339.61 -117.2,-406.85 393.8,316.78 259.9,1561.9 27.6,1715.2"
         style="fill:#b5453c;fill-opacity:1;fill-rule:nonzero;stroke:none"
         transform="matrix(0.13333333,0,0,-0.13333333,0,2186.6667)" />
      <path
         id="path70"
         d="m 16480.5,9728.69 c 0,0 174.4,-7.56 358.2,-25.02 125,-11.86 258.3,-25.62 328.7,-55.06 174,-72.75 155.8,-380.87 -209.4,-323.81 -365.2,57.07 -503.1,312.52 -477.5,403.89"
         style="fill:#ffb27d;fill-opacity:1;fill-rule:nonzero;stroke:none"
         transform="matrix(0.13333333,0,0,-0.13333333,0,2186.6667)" />
      <path
         id="path71"
         d="m 17152,9503.99 c 2.1,-1.13 52.1,-265.05 -187,-254.5 -157,6.93 -495.5,196.86 -465.6,331.25 14.2,63.89 132.8,229.64 156.7,607.96 l 28.5,-7.6 480.5,-128.9 c 0,0 -21.3,-152.48 -31.3,-296.8 -8.4,-121.18 -8.7,-236.61 18.2,-251.41"
         style="fill:#ffb27d;fill-opacity:1;fill-rule:nonzero;stroke:none"
         transform="matrix(0.13333333,0,0,-0.13333333,0,2186.6667)" />
      <path
         id="path72"
         d="m 17165.1,10052.2 c 0,0 -21.3,-152.48 -31.3,-296.8 -271.9,25.84 -399.3,284 -449.2,425.7 l 480.5,-128.9"
         style="fill:#f4a269;fill-opacity:1;fill-rule:nonzero;stroke:none"
         transform="matrix(0.13333333,0,0,-0.13333333,0,2186.6667)" />
      <path
         id="path73"
         d="m 16637.9,10237.4 c 0,0 -127.8,235.1 -149.2,430.3 -15.2,139.4 88.9,645.2 597,537.5 0,0 148,-24.7 281.8,-128.6 106.3,-82.6 256.2,-255.8 46.8,-689.2 l -56.7,-147.4 -719.7,-2.6"
         style="fill:#b5453c;fill-opacity:1;fill-rule:nonzero;stroke:none"
         transform="matrix(0.13333333,0,0,-0.13333333,0,2186.6667)" />
      <path
         id="path74"
         d="m 17246.9,9909.46 c 0,0 -645.3,32.34 -618.9,433.94 26.3,401.5 -39.3,676.1 373.9,672.5 413.1,-3.7 483,-162.2 506.8,-298.4 23.8,-136.1 -93.2,-806.11 -261.8,-808.04"
         style="fill:#ffb27d;fill-opacity:1;fill-rule:nonzero;stroke:none"
         transform="matrix(0.13333333,0,0,-0.13333333,0,2186.6667)" />
      <path
         id="path75"
         d="m 17296.1,11006.1 c 0,0 -207.9,-459.3 -483.4,-510.9 -275.5,-51.6 -388.1,28.8 -388.1,28.8 0,0 218.7,151.2 281,436.4 0,0 472.3,278.8 590.5,45.7"
         style="fill:#b5453c;fill-opacity:1;fill-rule:nonzero;stroke:none"
         transform="matrix(0.13333333,0,0,-0.13333333,0,2186.6667)" />
      <path
         id="path76"
         d="m 17249.8,10970.8 c 0,0 124.8,-114 150.1,-218.4 25.3,-104.3 25.8,-315.8 87.6,-312.7 0,0 154.3,311.3 16.9,502.4 -145.6,202.6 -254.6,28.7 -254.6,28.7"
         style="fill:#b5453c;fill-opacity:1;fill-rule:nonzero;stroke:none"
         transform="matrix(0.13333333,0,0,-0.13333333,0,2186.6667)" />
      <path
         id="path77"
         d="m 17892.6,7030.27 c -52.2,-62.43 -215.3,-81.6 -389.5,-110.27 -137.2,-22.65 -281.2,-51.04 -383.6,-111.21 -232.7,-136.56 -992.7,-598.19 -1215.4,-577.19 -86.4,8.2 -70.2,173.04 -17.9,391.78 82.3,345.46 254.7,825.2 254.7,1033.81 0,113.85 37.9,383.26 88.4,691.29 4.1,24.82 8.3,49.84 12.5,75.13 100.1,598.88 238.7,1305.03 238.7,1305.03 0,0 154.6,-337.23 455.7,-337.23 301.1,0 231.2,257.17 231.2,257.17 0,0 274.8,-32.32 339.7,-102.24 65,-69.93 229.6,-372.21 262.3,-454.65 0,0 6.6,-104.89 -253.1,-154.83 0,0 63.3,-284.75 70.8,-474.55 5.5,-140.22 -95.7,-579.08 -124.8,-852.05 -10.4,-96.68 -11.7,-172.55 4,-206.96 20.1,-44.09 85.1,-88.01 159,-131.09 146.8,-85.45 329.3,-167.71 267.3,-241.94"
         style="fill:#1c468a;fill-opacity:1;fill-rule:nonzero;stroke:none"
         transform="matrix(0.13333333,0,0,-0.13333333,0,2186.6667)" />
      <path
         id="path78"
         d="m 17625.3,7272.21 c 166.7,-284.2 -452.1,-369.65 -554.5,-429.82 -232.6,-136.57 -944,-631.79 -1166.7,-610.79 -86.4,8.2 -70.2,173.04 -17.9,391.78 82.3,345.46 254.7,825.2 254.7,1033.81 0,113.85 37.9,383.26 88.4,691.29 l 268.2,257.44 c 0,0 287.3,-742.58 561.2,-864.28 143.5,-63.73 293.4,-105.81 403.6,-131.38 -10.4,-96.68 -11.7,-172.55 4,-206.96 20.1,-44.09 85.1,-88.01 159,-131.09"
         style="fill:#163560;fill-opacity:1;fill-rule:nonzero;stroke:none"
         transform="matrix(0.13333333,0,0,-0.13333333,0,2186.6667)" />
      <path
         id="path79"
         d="m 16398.1,9506.38 c 0,0 -229.3,139.23 -450.9,-124.89 -221.7,-264.1 157.5,-2152.03 486,-2249.01 364.8,-107.73 1418.7,17.25 1418.7,17.25 l -20.3,164.69 c 0,0 -1122,215.12 -1168.6,275.06 -46.6,59.95 -148.4,1886.45 -264.9,1916.9"
         style="fill:#ffb27d;fill-opacity:1;fill-rule:nonzero;stroke:none"
         transform="matrix(0.13333333,0,0,-0.13333333,0,2186.6667)" />
      <path
         id="path80"
         d="m 16480.5,9728.69 c 0,0 -470.8,-42.47 -607.5,-197.32 -136.8,-154.87 -176.7,-574.49 -176.7,-574.49 0,0 414.6,-334.69 914.1,-204.81 l -129.9,976.62"
         style="fill:#1c468a;fill-opacity:1;fill-rule:nonzero;stroke:none"
         transform="matrix(0.13333333,0,0,-0.13333333,0,2186.6667)" />
      <path
         id="path81"
         d="m 18583.8,6988.01 h -621.9 v 73.47 h 621.9 v -73.47"
         style="fill:#9e332e;fill-opacity:1;fill-rule:nonzero;stroke:none"
         transform="matrix(0.13333333,0,0,-0.13333333,0,2186.6667)" />
      <path
         id="path82"
         d="m 18451.7,6998.07 c 6.1,24.31 571.7,912.44 571.7,912.44 h 1258.5 l -631.3,-888.59 -1198.9,-23.85"
         style="fill:#9e332e;fill-opacity:1;fill-rule:nonzero;stroke:none"
         transform="matrix(0.13333333,0,0,-0.13333333,0,2186.6667)" />
      <path
         id="path83"
         d="m 18504.7,6988.01 c 6.1,24.31 573.5,922.5 573.5,922.5 h 1203.7 l -600.6,-922.5 h -1176.6"
         style="fill:#b5453c;fill-opacity:1;fill-rule:nonzero;stroke:none"
         transform="matrix(0.13333333,0,0,-0.13333333,0,2186.6667)" />
      <path
         id="path84"
         d="m 19565.8,7446.27 c -12.4,-35.99 -51.6,-65.16 -87.6,-65.16 -36,0 -55.1,29.17 -42.7,65.16 12.4,36 51.6,65.17 87.6,65.17 36,0 55.1,-29.17 42.7,-65.17"
         style="fill:#9e332e;fill-opacity:1;fill-rule:nonzero;stroke:none"
         transform="matrix(0.13333333,0,0,-0.13333333,0,2186.6667)" />
      <path
         id="path85"
         d="m 17740,7324.21 c 0,0 365.3,70.7 406.6,53.03 41.2,-17.68 271,-223.89 247.4,-265.14 -23.5,-41.24 -117.8,-70.7 -223.9,-35.35 -106,35.35 -335.8,53.03 -377,106.05 -41.3,53.03 -53.1,141.41 -53.1,141.41"
         style="fill:#ffb27d;fill-opacity:1;fill-rule:nonzero;stroke:none"
         transform="matrix(0.13333333,0,0,-0.13333333,0,2186.6667)" />
      <path
         id="path86"
         d="m 18467.9,3619.7 c -133.4,-770 -865.8,-1258 -1616.5,-1258 h -1513.5 l 118.4,4627.35 c 0,0 1444.1,504.04 1806.8,24.56 317.7,-420.04 1179.5,-2082.81 1224.8,-3066.91 5.3,-113.9 -1.8,-223 -20,-327"
         style="fill:#f9ddbf;fill-opacity:1;fill-rule:nonzero;stroke:none"
         transform="matrix(0.13333333,0,0,-0.13333333,0,2186.6667)" />
      <path
         id="path87"
         d="m 18467.9,3619.7 c -133.4,-770 -865.8,-1258 -1616.5,-1258 h -1211.2 c 567,384.3 1330.3,1446 2827.7,1258"
         style="fill:#eac3a0;fill-opacity:1;fill-rule:nonzero;stroke:none"
         transform="matrix(0.13333333,0,0,-0.13333333,0,2186.6667)" />
      <path
         id="path88"
         d="m 16121.6,2365.1 c -11.3,-0.8 -22.6,-1.5 -33.9,-2.2 -24,-1.2 -48,-2.1 -72.1,-2.4 -7.9,-0.1 -16,-0.2 -24,-0.2 h -1513.5 l -0.1,0.7 c -28.8,-0.4 -58,-0.7 -87.4,-1.1 -155.9,-1.9 -318.6,-3.7 -469.6,-5 -25.3,-0.3 -50.2,-0.5 -74.8,-0.7 -9.1,0 -18.3,0 -27.2,-0.1 -149.2,-1 -281.1,-1.5 -375.2,-0.8 -132.3,0.9 -257,10.2 -374.3,28.8 -151.3,23.9 -290.2,63.2 -417.1,119.3 -45.8,20.2 -90,42.7 -132.7,67.4 -57.4,33 -112.2,70.4 -164.1,111.9 -134.3,107.3 -250.5,243 -349.2,410 -68.8,116.2 -129.2,247.7 -181.4,395.4 -65.8,185.2 -118.6,396 -159.2,634.4 -58.2,340.3 -91.4,736.5 -101.5,1194.6 -4,184.5 -4.3,379 -0.9,583.9 5.4,327.4 20.2,681.42 43.8,1063.49 33.3,536.53 84.1,1128.39 151.3,1779.86 61.3,595.05 131.9,1010.99 234.7,1105.76 151.7,139.76 467.9,195.99 687.9,218.59 0.1,0 0.1,0 0.2,0 136.6,13.9 235.8,15 235.8,15 268.8,0 507.7,-192.97 594,-479.73 175.6,-583.9 489.2,-1627.86 815.6,-2719.82 1.6,-5.48 3.3,-10.96 4.9,-16.44 18.7,-62.71 37.5,-125.61 56.3,-188.6 2.9,-9.6 5.8,-19.18 8.7,-28.77 18.4,8.22 37.5,16.81 57.2,25.48 0.6,0.36 1.2,0.63 2,0.91 78.2,34.68 166.8,72.67 262.4,111.38 v 0 c 49.6,20.08 100.9,40.43 153.9,60.71 149.3,57.24 310.6,113.84 474,162.59 72.5,21.73 145.5,41.91 218.1,59.8 93.2,23.1 185.7,42.64 275.8,57.15 3.1,0.54 5.6,0.92 7.8,1.28 10.7,1.73 21.3,3.29 31.9,4.84 388.6,57.05 725.9,17.43 865.4,-228.69 223.3,-394.22 837.7,-1966.89 883,-2953.89 42,-910.1 -702.2,-1524.4 -1506.5,-1584.8"
         style="fill:#d39e7a;fill-opacity:1;fill-rule:nonzero;stroke:none"
         transform="matrix(0.13333333,0,0,-0.13333333,0,2186.6667)" />
      <path
         id="path89"
         d="m 13693.7,6463.4 c 0,0 -776.8,3164.86 -832.9,3430.86 -25,118.54 -102,161.44 -179.5,172.44 136.5,13.9 235.8,15 235.8,15 268.8,0 507.7,-192.38 594,-478.31 188.1,-623.64 534.5,-1773.68 885.5,-2945.04 -17.8,0.46 -702.9,-194.95 -702.9,-194.95"
         style="fill:#f9ddbf;fill-opacity:1;fill-rule:nonzero;stroke:none"
         transform="matrix(0.13333333,0,0,-0.13333333,0,2186.6667)" />
      <path
         id="path90"
         d="m 16556,4941.5 c -207.9,343.6 -33.3,408.1 -65.2,1177.9 -31.9,769.69 -390.3,706.15 -539,854.96 -27.2,27.38 -50.3,83.26 -72.1,158.12 -10.6,-1.55 -21.2,-3.11 -31.9,-4.84 -2.2,-0.36 -4.7,-0.74 -7.8,-1.28 -90.1,-14.51 -182.6,-34.05 -275.8,-57.15 -72.6,-17.89 -145.6,-38.07 -218.1,-59.8 -163.4,-48.75 -324.7,-105.35 -474,-162.59 -53,-20.28 -104.3,-40.63 -153.9,-60.71 -128.6,-807.51 -327.6,-4426.21 -327.6,-4426.21 1.6,-1.7 3.2,-3.4 4.8,-5 162.5,1.4 338.2,3.4 505.2,5.4 23.9,0.3 47.5,0.6 71,0.9 l 0.1,-0.7 h 1142.2 c 1.5,0.8 3.1,1.8 4.6,2.7 1,0.6 2.1,1.3 3.1,1.9 306.8,190.3 238.3,572 166.1,811.3 -29.1,255.8 -142.2,555.6 -234.6,834.2 28.7,84.8 69,133.3 241.8,197.1 192,70.7 242.4,372.9 242.4,372.9 51.3,-135.1 -66,-321.6 -69.1,-326.5 6.6,7.8 293.4,347.8 87.8,687.4"
         style="fill:#c6916d;fill-opacity:1;fill-rule:nonzero;stroke:none"
         transform="matrix(0.13333333,0,0,-0.13333333,0,2186.6667)" />
      <path
         id="path91"
         d="m 14004.4,6501.44 c 0,0 -1152.3,-502.04 -1361.4,-492.84 -209.2,9.1 -1498,392.52 -1498,392.52 l 32.8,-221.72 c 0,0 994.6,-572 1342.3,-604.5 342.4,-31.9 1513,307.3 1626,378.9 113,71.6 186.7,475.16 -141.7,547.64"
         style="fill:#ed985f;fill-opacity:1;fill-rule:nonzero;stroke:none"
         transform="matrix(0.13333333,0,0,-0.13333333,0,2186.6667)" />
      <path
         id="path92"
         d="m 14177.5,8348.22 c 0,0 425.1,80.74 636.8,-73.86 383.5,-280.05 404.1,-1245.57 547.8,-1389.4 143.7,-143.83 490.2,-82.46 521.1,-826.66 30.8,-744.2 -138,-806.4 63,-1138.7 201,-332.2 -85,-664.7 -85,-664.7 0,0 117.1,183.4 66.9,315.8 0,0 -48.7,-292.2 -234.3,-360.6 -185.6,-68.5 -213.1,-118.7 -242.7,-219.1 0,0 -1583.3,811.3 -1585,1386.7 -1.8,575.5 -311.6,1145.48 -159.4,1394.85 0,0 -67.8,-106.68 -76.1,-225.36 0,0 -91.3,174.94 66.9,337.77 158.3,162.84 -185.6,499.84 -134.7,890.13 35,267.94 223,561.46 614.7,573.13"
         style="fill:#233862;fill-opacity:1;fill-rule:nonzero;stroke:none"
         transform="matrix(0.13333333,0,0,-0.13333333,0,2186.6667)" />
      <path
         id="path93"
         d="m 13864.3,5953.2 c 101.2,-70.2 228.1,-128.1 387.4,-164.9 597.1,-137.9 826,366.7 911.9,713.14 -81.4,46.6 -158,56.87 -202.3,62.14 -43.1,5.1 -88.5,8.48 -126.1,10.35 -67.1,51.35 -167,261.53 -189.1,587.88 l -28.1,-7.54 -470.6,-128.8 c 0,0 21.6,-149.59 32.2,-290.98 8.1,-110.64 9.4,-216.38 -11.5,-242.25 -36.8,-7.97 -58.8,-13.17 -58.8,-13.17 0,0 0,-0.15 -0.2,-0.45 -6.4,-10.35 -142.9,-234.92 -244.8,-525.42"
         style="fill:#ffb27d;fill-opacity:1;fill-rule:nonzero;stroke:none"
         transform="matrix(0.13333333,0,0,-0.13333333,0,2186.6667)" />
      <path
         id="path94"
         d="m 14147.4,7025.38 c 0,0 21.7,-149.46 32.1,-290.97 266.6,26.69 390.4,280.53 438.5,419.76 l -470.6,-128.79"
         style="fill:#ed985f;fill-opacity:1;fill-rule:nonzero;stroke:none"
         transform="matrix(0.13333333,0,0,-0.13333333,0,2186.6667)" />
      <path
         id="path95"
         d="m 14067.8,6884.96 c 0,0 632.8,34.92 605,428.68 -27.8,393.75 35.2,663.45 -370.1,657.81 -405.2,-5.66 -473,-161.45 -495.7,-295.13 -22.7,-133.68 95.5,-790.28 260.8,-791.36"
         style="fill:#ffb27d;fill-opacity:1;fill-rule:nonzero;stroke:none"
         transform="matrix(0.13333333,0,0,-0.13333333,0,2186.6667)" />
      <path
         id="path96"
         d="m 13810.1,7896.58 c 89.2,125.45 164.9,104.75 208.9,72.11 331.8,214.73 574.6,-50.13 574.6,-50.13 62.5,-279.47 277.9,-426.69 277.9,-426.69 0,0 -110.1,-79.42 -380.6,-30.18 -82.7,15.05 -159.2,67.51 -225.8,133.03 120.4,-172.46 276,-291.78 276,-291.78 -327.8,123.9 -486.8,555.99 -502.9,601.74 -36.1,-37.42 -106.7,-118.15 -124.6,-193.59 -24.3,-102.53 -129.2,-262.79 -189.9,-260.09 0,0 -47.4,257.48 86.4,445.58"
         style="fill:#233862;fill-opacity:1;fill-rule:nonzero;stroke:none"
         transform="matrix(0.13333333,0,0,-0.13333333,0,2186.6667)" />
      <path
         id="path97"
         d="m 15343.9,4666.5 c 57.1,292.2 243.4,1459.4 57.1,1834.96 -66.9,134.93 -329.5,147.09 -617.6,135.26 -89.7,-57.87 -431.3,-276.62 -571.6,-249.32 -1.5,0.3 -4.2,1 -7.8,1.9 -66.1,16.5 -91.1,62.93 -35.9,102.94 0.1,0.08 -142.7,13.77 -319.9,-19.6 -100.1,-18.85 -370.1,-158.54 -370.1,-158.54 0,0 136,-245.6 336.4,-330.4 -34.1,-304.9 16.6,-439.4 333,-1143.7 267.3,-595.3 -36.1,-1131.3 -36.1,-1131.3 0,0 1573.5,-1265.2 1582.3,-621 6.6,485 -422.9,1205.4 -349.8,1578.8"
         style="fill:#b5453c;fill-opacity:1;fill-rule:nonzero;stroke:none"
         transform="matrix(0.13333333,0,0,-0.13333333,0,2186.6667)" />
      <path
         id="path98"
         d="m 14033.4,2333 c -85.6,9.7 -162.6,56.5 -210.5,128.1 -7.6,11.4 -15.7,23.6 -24.3,36.7 -179.1,271.1 -248.8,1101.5 -651.7,1986.1 -98.1,215.4 -450.4,254.1 -546.4,497.6 0,0 -236.4,789.1 452.5,812.4 688.9,23.3 1845,-2195.7 1863.2,-2428.4 17.7,-225.4 455.5,-1183.5 -882.8,-1032.5"
         style="fill:#dd6d22;fill-opacity:1;fill-rule:nonzero;stroke:none"
         transform="matrix(0.13333333,0,0,-0.13333333,0,2186.6667)" />
      <path
         id="path99"
         d="m 11295.3,2351.2 h 980.5 c 0,0 36.7,156.3 -27.7,262.8 -57,94.1 -35.2,147.8 7,225.7 -44.4,-18.2 -101.8,-34.8 -165.1,-31.1 -48.8,2.8 -100.5,24.9 -145.8,51.3 -42.2,-48.2 -222.9,-253 -279.4,-293.5 -64.1,-46.1 -349.8,-29.7 -369.5,-215.2"
         style="fill:#9e332e;fill-opacity:1;fill-rule:nonzero;stroke:none"
         transform="matrix(0.13333333,0,0,-0.13333333,0,2186.6667)" />
      <path
         id="path100"
         d="m 15240.5,6195.5 c 0,0 127.6,-1161.1 -700,-1404.4 -827.7,-243.2 -1062.6,1068.3 -394.4,1162.7 668.3,94.3 1094.4,241.7 1094.4,241.7"
         style="fill:#9e332e;fill-opacity:1;fill-rule:nonzero;stroke:none"
         transform="matrix(0.13333333,0,0,-0.13333333,0,2186.6667)" />
      <path
         id="path101"
         d="m 12578.1,5565.8 c -59.1,-442.6 -289.6,-1839.7 -696.4,-2521.4 -131.1,-219.7 330.4,-342.9 332.9,-342.3 61.9,16.2 165,114.9 212.5,157.8 330.2,297.5 1000.5,1140.2 1000.5,1815.8 0,329.4 5.8,958.5 -233.7,1118.4 -147.5,98.4 -592.4,-52.5 -615.8,-228.3"
         style="fill:#ed7d2b;fill-opacity:1;fill-rule:nonzero;stroke:none"
         transform="matrix(0.13333333,0,0,-0.13333333,0,2186.6667)" />
      <path
         id="path102"
         d="m 14618.1,2351.2 c 0,0 -36.4,50.5 -99.7,146.6 -75.4,114.2 -158.9,338.9 -260.1,627.1 -106.4,302.4 -232.5,674.5 -390.2,1061.7 -48.7,119.5 -100.3,240.5 -155.3,361.3 -98.1,215.3 -368.1,185.6 -464.1,429 0,0 -374.8,844 314.1,867.3 688.9,23.3 1998,-2257.8 2073.2,-2478.7 82.3,-241.8 484.1,-1246.1 -1017.9,-1014.3"
         style="fill:#f99746;fill-opacity:1;fill-rule:nonzero;stroke:none"
         transform="matrix(0.13333333,0,0,-0.13333333,0,2186.6667)" />
      <path
         id="path103"
         d="m 12015.1,2351.2 h 980.5 c 0,0 36.6,156.3 -27.7,262.8 -57,94.1 -35.2,147.8 7,225.7 -44.4,-18.2 -101.9,-34.8 -165.1,-31.1 -48.9,2.8 -100.5,24.9 -145.8,51.3 -42.2,-48.2 -222.9,-253 -279.4,-293.5 -64.1,-46.1 -349.8,-29.7 -369.5,-215.2"
         style="fill:#b5453c;fill-opacity:1;fill-rule:nonzero;stroke:none"
         transform="matrix(0.13333333,0,0,-0.13333333,0,2186.6667)" />
      <path
         id="path104"
         d="m 14258.3,3124.9 c -106.4,302.4 -232.5,674.5 -390.2,1061.7 41.2,293.3 130,550 279.4,653.4 0,0 362.3,-1122.5 110.8,-1715.1"
         style="fill:#ed7d2b;fill-opacity:1;fill-rule:nonzero;stroke:none"
         transform="matrix(0.13333333,0,0,-0.13333333,0,2186.6667)" />
      <path
         id="path105"
         d="m 13150.4,5597.2 c -59,-442.7 -142.2,-1871.1 -548.9,-2552.8 -131.1,-219.7 330.4,-342.9 332.9,-342.3 61.9,16.2 165,114.9 212.5,157.8 330.2,297.5 1000.5,1140.2 1000.5,1815.8 0,329.4 -386.6,932.1 -626.1,1092 -147.5,98.4 -347.4,5.3 -370.9,-170.5"
         style="fill:#f99746;fill-opacity:1;fill-rule:nonzero;stroke:none"
         transform="matrix(0.13333333,0,0,-0.13333333,0,2186.6667)" />
      <path
         id="path106"
         d="m 11027.9,6971.54 1004.2,106.65 c 29.2,3.11 56.9,-13.89 67.4,-41.39 l 359.3,-944.1 c 15.7,-41.3 -13.7,-86 -58,-87.8 l -996.4,-40.2 c -27.1,-1.1 -51.9,14.8 -62.4,39.8 l -367,877.58 c -16.8,40.03 9.8,84.87 52.9,89.46"
         style="fill:#9e332e;fill-opacity:1;fill-rule:nonzero;stroke:none"
         transform="matrix(0.13333333,0,0,-0.13333333,0,2186.6667)" />
      <path
         id="path107"
         d="m 10940.7,6962.41 1004.1,106.65 c 29.3,3.11 57,-13.88 67.5,-41.39 l 359.2,-944.07 c 15.8,-41.4 -13.7,-86 -57.9,-87.8 l -996.4,-40.2 c -27.1,-1.1 -52,14.8 -62.4,39.8 l -367.1,877.55 c -16.7,40.03 9.8,84.88 53,89.46"
         style="fill:#b5453c;fill-opacity:1;fill-rule:nonzero;stroke:none"
         transform="matrix(0.13333333,0,0,-0.13333333,0,2186.6667)" />
      <path
         id="path108"
         d="m 11497.3,6521.62 c -12.3,33.69 5.1,61.01 38.8,61.01 33.7,0 70.9,-27.32 83.2,-61.01 12.3,-33.7 -5.1,-61.02 -38.8,-61.02 -33.7,0 -70.9,27.32 -83.2,61.02"
         style="fill:#9e332e;fill-opacity:1;fill-rule:nonzero;stroke:none"
         transform="matrix(0.13333333,0,0,-0.13333333,0,2186.6667)" />
      <path
         id="path109"
         d="m 10970.7,6873.2 c -6,16.56 2.5,29.97 19.1,29.97 16.6,0 34.9,-13.41 40.9,-29.97 6,-16.56 -2.5,-29.98 -19.1,-29.98 -16.5,0 -34.8,13.42 -40.9,29.98"
         style="fill:#9e332e;fill-opacity:1;fill-rule:nonzero;stroke:none"
         transform="matrix(0.13333333,0,0,-0.13333333,0,2186.6667)" />
      <path
         id="path110"
         d="m 15163.6,6501.44 c 0,0 -1391.7,-512.54 -1600.8,-502.04 -135.2,6.8 -1258.6,401.72 -1258.6,401.72 l -100.9,-190.82 c 0,0 1093.5,-702.8 1394.1,-699.3 593.5,6.9 1594.9,371.2 1708,442.8 113,71.6 186.6,475.16 -141.8,547.64"
         style="fill:#ffb27d;fill-opacity:1;fill-rule:nonzero;stroke:none"
         transform="matrix(0.13333333,0,0,-0.13333333,0,2186.6667)" />
      <path
         id="path111"
         d="m 12304.2,6401.12 c 0,0 -100.9,155.21 -201.3,159.76 -100.4,4.57 -273.9,-68.47 -333.2,-79.87 -59.3,-11.42 -228.2,-66.19 -178,-148.41 50.2,-82.1 283,-100.4 383.4,-82.1 100.4,18.2 228.2,-40.2 228.2,-40.2 l 100.9,190.82"
         style="fill:#ffb27d;fill-opacity:1;fill-rule:nonzero;stroke:none"
         transform="matrix(0.13333333,0,0,-0.13333333,0,2186.6667)" />
      <path
         id="path112"
         d="m 12130.3,6556.1 c 0,0 -159.8,73.26 -205.4,86.95 -45.6,13.69 -36.5,-0.22 -22.8,-43.48 13.7,-43.24 95.8,-84.54 95.8,-98.13 0,-13.59 132.4,54.66 132.4,54.66"
         style="fill:#ffb27d;fill-opacity:1;fill-rule:nonzero;stroke:none"
         transform="matrix(0.13333333,0,0,-0.13333333,0,2186.6667)" />
      <path
         id="path113"
         d="m 11044.1,6483.28 c 0,0 100.7,159.28 133.7,165.8 100.4,19.84 100.4,-112.43 79.1,-197.74 -22.8,-91.54 -100.2,-177.94 -121.6,-170.34 -21.4,7.5 -114.9,118.1 -91.2,202.28"
         style="fill:#ffb27d;fill-opacity:1;fill-rule:nonzero;stroke:none"
         transform="matrix(0.13333333,0,0,-0.13333333,0,2186.6667)" />
      <path
         id="path114"
         d="m 11040.3,6451.34 c 0,0 -32.2,-178.64 137.5,-271.94 l -137.5,271.94"
         style="fill:#ffb27d;fill-opacity:1;fill-rule:nonzero;stroke:none"
         transform="matrix(0.13333333,0,0,-0.13333333,0,2186.6667)" />
      <path
         id="path115"
         d="m 13949.3,7111.41 c 0,0 59.9,23.66 228.2,10.02 0,0 -8.9,-65.68 -133.1,-72.17 -70.3,-3.67 -95.1,62.15 -95.1,62.15"
         style="fill:#ffffff;fill-opacity:1;fill-rule:nonzero;stroke:none"
         transform="matrix(0.13333333,0,0,-0.13333333,0,2186.6667)" />
      <path
         id="path116"
         d="m 14446.6,6248.7 c 0,0 124.5,-394.1 551.9,-483.7 0,0 706,217.5 354.5,698.4 0,0 -347.5,258.21 -906.4,-214.7"
         style="fill:#b5453c;fill-opacity:1;fill-rule:nonzero;stroke:none"
         transform="matrix(0.13333333,0,0,-0.13333333,0,2186.6667)" />
      <path
         id="path117"
         d="M 29274,2277.1 H 1426.6 c -17.4,0 -31.63,14.2 -31.63,31.6 v 10.8 c 0,17.4 14.23,31.7 31.63,31.7 H 29274 c 17.4,0 31.6,-14.3 31.6,-31.7 v -10.8 c 0,-17.4 -14.2,-31.6 -31.6,-31.6"
         style="fill:#2e3552;fill-opacity:1;fill-rule:nonzero;stroke:none"
         transform="matrix(0.13333333,0,0,-0.13333333,0,2186.6667)" />
    </g>
  </g>
</svg>
